<svg width="520" height="48" viewBox="0 0 520 48" fill="none" xmlns="http://www.w3.org/2000/svg">
<rect width="520" height="48" rx="8" fill="url(#paint0_linear_777_299)"/>
<rect width="520" height="43" rx="8" fill="#191919"/>
<path d="M177.057 29.817C176.043 29.817 175.15 29.5846 174.379 29.1198C173.608 28.6444 173.005 27.9683 172.572 27.0915C172.139 26.2147 171.923 25.1689 171.923 23.954C171.923 22.7497 172.134 21.7092 172.556 20.8324C172.99 19.945 173.592 19.2636 174.363 18.7882C175.134 18.3023 176.037 18.0593 177.073 18.0593C178.467 18.0593 179.55 18.4079 180.321 19.1052C181.092 19.8024 181.594 20.769 181.826 22.005L180.036 22.1C179.888 21.3289 179.571 20.7267 179.085 20.2936C178.599 19.8499 177.928 19.6281 177.073 19.6281C176.386 19.6281 175.789 19.8024 175.282 20.151C174.785 20.4996 174.395 20.9961 174.109 21.6405C173.835 22.2849 173.697 23.0561 173.697 23.954C173.697 24.8519 173.835 25.6231 174.109 26.2675C174.395 26.9119 174.791 27.4031 175.298 27.7412C175.805 28.0792 176.391 28.2483 177.057 28.2483C177.965 28.2483 178.668 28.0106 179.164 27.5352C179.671 27.0493 179.988 26.3837 180.115 25.5386L181.906 25.6337C181.768 26.4894 181.494 27.2288 181.082 27.8521C180.67 28.4754 180.126 28.9613 179.449 29.3099C178.773 29.648 177.976 29.817 177.057 29.817ZM185.378 29.5635C184.829 29.5635 184.385 29.4209 184.047 29.1356C183.709 28.8504 183.54 28.3962 183.54 27.7729V18.3129H185.22V27.6144C185.22 27.8046 185.267 27.9472 185.362 28.0423C185.468 28.1373 185.616 28.1849 185.806 28.1849H186.472V29.5635H185.378ZM190.358 29.7536C189.481 29.7536 188.778 29.5529 188.25 29.1515C187.733 28.7501 187.474 28.1849 187.474 27.456C187.474 26.7271 187.69 26.1619 188.124 25.7605C188.567 25.3485 189.249 25.0527 190.168 24.8731L193.067 24.3185C193.067 23.6635 192.914 23.1776 192.608 22.8606C192.302 22.5332 191.847 22.3694 191.245 22.3694C190.706 22.3694 190.284 22.4909 189.977 22.7339C189.671 22.9663 189.46 23.3149 189.344 23.7797L187.616 23.6688C187.775 22.8237 188.166 22.1581 188.789 21.6722C189.423 21.1863 190.242 20.9433 191.245 20.9433C192.386 20.9433 193.252 21.2496 193.844 21.8623C194.446 22.4645 194.747 23.3149 194.747 24.4135V27.6937C194.747 27.8944 194.779 28.037 194.842 28.1215C194.916 28.1954 195.032 28.2324 195.191 28.2324H195.492V29.5635C195.439 29.574 195.355 29.5846 195.238 29.5952C195.122 29.6057 195.001 29.611 194.874 29.611C194.515 29.611 194.203 29.5529 193.939 29.4367C193.685 29.3205 193.495 29.1304 193.369 28.8663C193.242 28.5916 193.178 28.2271 193.178 27.7729L193.353 27.8521C193.268 28.2219 193.083 28.5493 192.798 28.8346C192.523 29.1198 192.17 29.3469 191.736 29.5159C191.314 29.6744 190.854 29.7536 190.358 29.7536ZM190.627 28.4226C191.134 28.4226 191.567 28.3275 191.927 28.1373C192.286 27.9366 192.566 27.662 192.766 27.3134C192.967 26.9647 193.067 26.5686 193.067 26.1249V25.5861L190.595 26.0615C190.088 26.1566 189.729 26.3098 189.518 26.5211C189.317 26.7218 189.217 26.9806 189.217 27.2975C189.217 27.6567 189.338 27.9366 189.581 28.1373C189.835 28.3275 190.183 28.4226 190.627 28.4226ZM196.833 29.5635V21.1334H198.512V29.5635H196.833ZM196.801 19.9133V18.2336H198.544V19.9133H196.801ZM201.026 29.5635V21.1334H202.563L202.611 23.2251L202.421 23.1617C202.516 22.6969 202.68 22.3008 202.912 21.9733C203.155 21.6458 203.451 21.3923 203.799 21.2127C204.148 21.0331 204.528 20.9433 204.94 20.9433C205.659 20.9433 206.245 21.1493 206.699 21.5613C207.153 21.9627 207.439 22.5173 207.555 23.2251H207.285C207.381 22.7286 207.539 22.3166 207.761 21.9891C207.993 21.6511 208.289 21.3923 208.648 21.2127C209.007 21.0331 209.414 20.9433 209.868 20.9433C210.46 20.9433 210.962 21.0701 211.374 21.3236C211.796 21.5666 212.113 21.9257 212.324 22.4011C212.546 22.8765 212.657 23.4575 212.657 24.1442V29.5635H210.978V24.5562C210.978 23.8272 210.846 23.2779 210.581 22.9082C210.317 22.5384 209.916 22.3536 209.377 22.3536C209.029 22.3536 208.722 22.4434 208.458 22.623C208.194 22.8025 207.988 23.0614 207.84 23.3994C207.703 23.7375 207.634 24.1442 207.634 24.6195V29.5635H206.034V24.6195C206.034 23.9012 205.912 23.3466 205.669 22.9557C205.437 22.5543 205.035 22.3536 204.465 22.3536C204.106 22.3536 203.794 22.4434 203.53 22.623C203.276 22.8025 203.076 23.0666 202.928 23.4153C202.78 23.7533 202.706 24.1547 202.706 24.6195V29.5635H201.026ZM219.375 31.9404V30.5618H220.405C220.69 30.5618 220.901 30.5195 221.039 30.435C221.176 30.3505 221.282 30.2079 221.356 30.0072L221.625 29.3099H221.102L218.06 21.1334H219.834L222.148 27.757L224.35 21.1334H226.141L222.782 30.5459C222.613 31.0319 222.359 31.3858 222.021 31.6076C221.694 31.8294 221.234 31.9404 220.642 31.9404H219.375ZM230.695 29.7536C229.892 29.7536 229.19 29.574 228.587 29.2149C227.985 28.8557 227.521 28.3433 227.193 27.6778C226.866 27.0123 226.702 26.2358 226.702 25.3485C226.702 24.4505 226.866 23.6741 227.193 23.0191C227.521 22.3641 227.985 21.8571 228.587 21.4979C229.19 21.1282 229.892 20.9433 230.695 20.9433C231.498 20.9433 232.2 21.1282 232.802 21.4979C233.405 21.8571 233.869 22.3641 234.197 23.0191C234.524 23.6741 234.688 24.4505 234.688 25.3485C234.688 26.2358 234.524 27.0123 234.197 27.6778C233.869 28.3433 233.405 28.8557 232.802 29.2149C232.2 29.574 231.498 29.7536 230.695 29.7536ZM230.695 28.2958C231.413 28.2958 231.968 28.037 232.359 27.5193C232.75 26.9912 232.945 26.2675 232.945 25.3485C232.945 24.4294 232.75 23.711 232.359 23.1934C231.968 22.6652 231.413 22.4011 230.695 22.4011C229.987 22.4011 229.433 22.6652 229.031 23.1934C228.64 23.711 228.445 24.4294 228.445 25.3485C228.445 26.2675 228.64 26.9912 229.031 27.5193C229.433 28.037 229.987 28.2958 230.695 28.2958ZM239.159 29.7536C238.314 29.7536 237.637 29.4737 237.13 28.9138C236.634 28.3433 236.386 27.5563 236.386 26.5527V21.1334H238.065V26.1249C238.065 26.8855 238.197 27.4454 238.461 27.8046C238.726 28.1638 239.127 28.3433 239.666 28.3433C240.278 28.3433 240.754 28.1479 241.092 27.757C241.441 27.3556 241.615 26.7957 241.615 26.0774V21.1334H243.294V29.5635H241.726L241.694 27.3609L241.932 27.456C241.784 28.1954 241.472 28.7659 240.997 29.1673C240.521 29.5582 239.909 29.7536 239.159 29.7536ZM245.67 29.5635V21.1334H247.207L247.271 23.3677L247.128 23.3202C247.244 22.5596 247.477 22.005 247.825 21.6564C248.185 21.3077 248.665 21.1334 249.267 21.1334H250.076V22.6388H249.267C248.845 22.6388 248.491 22.7075 248.206 22.8448C247.921 22.9821 247.704 23.1934 247.556 23.4786C247.419 23.7639 247.35 24.1336 247.35 24.5879V29.5635H245.67ZM257.566 29.5635V21.5454H255.189V20.1668H256.156C256.579 20.1668 256.922 20.114 257.186 20.0084C257.45 19.8922 257.64 19.702 257.756 19.4379C257.873 19.1633 257.931 18.7882 257.931 18.3129H259.278V29.5635H257.566ZM266.163 29.817C265.234 29.817 264.425 29.5793 263.739 29.1039C263.052 28.6286 262.524 27.9525 262.154 27.0757C261.784 26.1989 261.6 25.1583 261.6 23.954C261.6 22.7497 261.784 21.7092 262.154 20.8324C262.534 19.945 263.063 19.2636 263.739 18.7882C264.425 18.3023 265.234 18.0593 266.163 18.0593C267.103 18.0593 267.911 18.3023 268.588 18.7882C269.274 19.2636 269.802 19.9397 270.172 20.8165C270.552 21.6933 270.743 22.7392 270.743 23.954C270.743 25.1583 270.558 26.1989 270.188 27.0757C269.818 27.9525 269.29 28.6286 268.603 29.1039C267.917 29.5793 267.103 29.817 266.163 29.817ZM266.163 28.2483C267.061 28.2483 267.753 27.8785 268.239 27.139C268.725 26.3996 268.968 25.3379 268.968 23.954C268.968 23.0244 268.857 22.2374 268.635 21.593C268.424 20.9486 268.107 20.4626 267.684 20.1351C267.272 19.7971 266.765 19.6281 266.163 19.6281C265.572 19.6281 265.065 19.7971 264.642 20.1351C264.23 20.4626 263.913 20.9486 263.691 21.593C263.48 22.2374 263.374 23.0244 263.374 23.954C263.374 25.3379 263.617 26.3996 264.103 27.139C264.589 27.8785 265.276 28.2483 266.163 28.2483ZM276.856 29.817C275.926 29.817 275.118 29.5793 274.432 29.1039C273.745 28.6286 273.217 27.9525 272.847 27.0757C272.477 26.1989 272.292 25.1583 272.292 23.954C272.292 22.7497 272.477 21.7092 272.847 20.8324C273.227 19.945 273.756 19.2636 274.432 18.7882C275.118 18.3023 275.926 18.0593 276.856 18.0593C277.796 18.0593 278.604 18.3023 279.281 18.7882C279.967 19.2636 280.495 19.9397 280.865 20.8165C281.245 21.6933 281.436 22.7392 281.436 23.954C281.436 25.1583 281.251 26.1989 280.881 27.0757C280.511 27.9525 279.983 28.6286 279.296 29.1039C278.61 29.5793 277.796 29.817 276.856 29.817ZM276.856 28.2483C277.754 28.2483 278.446 27.8785 278.932 27.139C279.418 26.3996 279.661 25.3379 279.661 23.954C279.661 23.0244 279.55 22.2374 279.328 21.593C279.117 20.9486 278.8 20.4626 278.377 20.1351C277.965 19.7971 277.458 19.6281 276.856 19.6281C276.264 19.6281 275.757 19.7971 275.335 20.1351C274.923 20.4626 274.606 20.9486 274.384 21.593C274.173 22.2374 274.067 23.0244 274.067 23.954C274.067 25.3379 274.31 26.3996 274.796 27.139C275.282 27.8785 275.969 28.2483 276.856 28.2483ZM287.549 29.817C286.619 29.817 285.811 29.5793 285.125 29.1039C284.438 28.6286 283.91 27.9525 283.54 27.0757C283.17 26.1989 282.985 25.1583 282.985 23.954C282.985 22.7497 283.17 21.7092 283.54 20.8324C283.92 19.945 284.448 19.2636 285.125 18.7882C285.811 18.3023 286.619 18.0593 287.549 18.0593C288.489 18.0593 289.297 18.3023 289.973 18.7882C290.66 19.2636 291.188 19.9397 291.558 20.8165C291.938 21.6933 292.128 22.7392 292.128 23.954C292.128 25.1583 291.944 26.1989 291.574 27.0757C291.204 27.9525 290.676 28.6286 289.989 29.1039C289.303 29.5793 288.489 29.817 287.549 29.817ZM287.549 28.2483C288.447 28.2483 289.139 27.8785 289.625 27.139C290.111 26.3996 290.354 25.3379 290.354 23.954C290.354 23.0244 290.243 22.2374 290.021 21.593C289.81 20.9486 289.493 20.4626 289.07 20.1351C288.658 19.7971 288.151 19.6281 287.549 19.6281C286.957 19.6281 286.45 19.7971 286.028 20.1351C285.616 20.4626 285.299 20.9486 285.077 21.593C284.866 22.2374 284.76 23.0244 284.76 23.954C284.76 25.3379 285.003 26.3996 285.489 27.139C285.975 27.8785 286.662 28.2483 287.549 28.2483ZM301.414 29.7536C300.611 29.7536 299.908 29.574 299.306 29.2149C298.704 28.8557 298.239 28.3433 297.912 27.6778C297.584 27.0123 297.421 26.2358 297.421 25.3485C297.421 24.4611 297.584 23.6899 297.912 23.0349C298.239 22.3694 298.704 21.8571 299.306 21.4979C299.908 21.1282 300.611 20.9433 301.414 20.9433C302.1 20.9433 302.708 21.0648 303.236 21.3077C303.775 21.5401 304.208 21.8835 304.535 22.3377C304.873 22.792 305.09 23.3466 305.185 24.0016L303.426 24.0966C303.342 23.5473 303.12 23.13 302.761 22.8448C302.401 22.549 301.952 22.4011 301.414 22.4011C300.706 22.4011 300.151 22.6652 299.75 23.1934C299.359 23.711 299.164 24.4294 299.164 25.3485C299.164 26.2675 299.359 26.9912 299.75 27.5193C300.151 28.037 300.706 28.2958 301.414 28.2958C301.952 28.2958 302.401 28.1479 302.761 27.8521C303.12 27.5458 303.342 27.0862 303.426 26.4735L305.185 26.5686C305.09 27.213 304.873 27.7729 304.535 28.2483C304.208 28.7236 303.775 29.0934 303.236 29.3575C302.708 29.6216 302.1 29.7536 301.414 29.7536ZM306.717 29.5635V21.1334H308.255L308.318 23.3677L308.175 23.3202C308.292 22.5596 308.524 22.005 308.873 21.6564C309.232 21.3077 309.712 21.1334 310.315 21.1334H311.123V22.6388H310.315C309.892 22.6388 309.538 22.7075 309.253 22.8448C308.968 22.9821 308.751 23.1934 308.603 23.4786C308.466 23.7639 308.397 24.1336 308.397 24.5879V29.5635H306.717ZM315.79 29.7536C314.966 29.7536 314.252 29.574 313.65 29.2149C313.059 28.8557 312.599 28.3433 312.272 27.6778C311.955 27.0123 311.796 26.2358 311.796 25.3485C311.796 24.4611 311.955 23.6899 312.272 23.0349C312.599 22.3694 313.059 21.8571 313.65 21.4979C314.242 21.1282 314.939 20.9433 315.742 20.9433C316.503 20.9433 317.173 21.1229 317.754 21.482C318.335 21.8307 318.784 22.3377 319.101 23.0033C319.429 23.6688 319.593 24.4716 319.593 25.4118V25.8397H313.539C313.582 26.6637 313.798 27.2817 314.189 27.6937C314.591 28.1056 315.129 28.3116 315.805 28.3116C316.302 28.3116 316.714 28.1954 317.041 27.963C317.369 27.7306 317.596 27.419 317.723 27.0281L319.466 27.139C319.244 27.9208 318.806 28.5546 318.151 29.0406C317.506 29.5159 316.719 29.7536 315.79 29.7536ZM313.539 24.572H317.818C317.765 23.822 317.548 23.2674 317.168 22.9082C316.798 22.549 316.323 22.3694 315.742 22.3694C315.14 22.3694 314.643 22.5596 314.252 22.9399C313.872 23.3096 313.635 23.8537 313.539 24.572ZM324.289 29.7536C323.571 29.7536 322.943 29.574 322.404 29.2149C321.876 28.8557 321.469 28.3486 321.184 27.6937C320.909 27.0281 320.772 26.2464 320.772 25.3485C320.772 24.4505 320.914 23.6741 321.199 23.0191C321.485 22.3536 321.891 21.8412 322.42 21.482C322.948 21.1229 323.571 20.9433 324.289 20.9433C324.87 20.9433 325.388 21.0648 325.842 21.3077C326.297 21.5507 326.64 21.8888 326.872 22.3219V18.3129H328.552V29.5635H326.983L326.936 28.2958C326.703 28.7501 326.349 29.1092 325.874 29.3733C325.409 29.6269 324.881 29.7536 324.289 29.7536ZM324.733 28.2958C325.187 28.2958 325.573 28.1796 325.89 27.9472C326.207 27.7148 326.45 27.3767 326.619 26.9331C326.788 26.4894 326.872 25.9612 326.872 25.3485C326.872 24.7146 326.788 24.1811 326.619 23.748C326.45 23.3043 326.207 22.9716 325.89 22.7497C325.573 22.5173 325.187 22.4011 324.733 22.4011C324.057 22.4011 323.518 22.6652 323.117 23.1934C322.715 23.711 322.515 24.4294 322.515 25.3485C322.515 26.257 322.715 26.9753 323.117 27.5035C323.518 28.0317 324.057 28.2958 324.733 28.2958ZM330.657 29.5635V21.1334H332.336V29.5635H330.657ZM330.625 19.9133V18.2336H332.368V19.9133H330.625ZM337.371 29.5635C336.568 29.5635 335.977 29.3786 335.596 29.0089C335.216 28.6391 335.026 28.0634 335.026 27.2817V19.1527H336.705V27.1549C336.705 27.5458 336.79 27.8151 336.959 27.963C337.128 28.1109 337.387 28.1849 337.735 28.1849H338.94V29.5635H337.371ZM333.742 22.512V21.1334H338.94V22.512H333.742ZM343.654 29.7536C342.862 29.7536 342.191 29.6321 341.642 29.3892C341.103 29.1462 340.686 28.8134 340.39 28.3909C340.094 27.9578 339.925 27.4612 339.883 26.9014L341.61 26.8221C341.694 27.2869 341.895 27.6567 342.212 27.9313C342.529 28.206 343.01 28.3433 343.654 28.3433C344.182 28.3433 344.6 28.2588 344.906 28.0898C345.212 27.9208 345.365 27.6514 345.365 27.2817C345.365 27.0809 345.313 26.9119 345.207 26.7746C345.112 26.6267 344.922 26.5052 344.636 26.4101C344.351 26.3045 343.929 26.2041 343.369 26.1091C342.534 25.9506 341.879 25.7657 341.404 25.5545C340.929 25.3432 340.59 25.0738 340.39 24.7463C340.189 24.4188 340.089 24.0227 340.089 23.5579C340.089 22.7867 340.374 22.1581 340.944 21.6722C341.525 21.1863 342.36 20.9433 343.448 20.9433C344.177 20.9433 344.79 21.0701 345.286 21.3236C345.783 21.5666 346.168 21.8993 346.443 22.3219C346.728 22.7339 346.908 23.1987 346.982 23.7163L345.254 23.8114C345.202 23.5156 345.096 23.2621 344.938 23.0508C344.79 22.829 344.589 22.6599 344.335 22.5437C344.082 22.417 343.781 22.3536 343.432 22.3536C342.893 22.3536 342.492 22.4592 342.228 22.6705C341.964 22.8818 341.832 23.1564 341.832 23.4945C341.832 23.748 341.89 23.954 342.006 24.1125C342.133 24.2709 342.334 24.403 342.608 24.5086C342.883 24.6037 343.247 24.6882 343.702 24.7622C344.578 24.9101 345.265 25.0949 345.762 25.3168C346.258 25.528 346.607 25.7921 346.807 26.1091C347.008 26.426 347.108 26.8116 347.108 27.2658C347.108 27.794 346.961 28.243 346.665 28.6127C346.369 28.9825 345.962 29.2677 345.445 29.4684C344.927 29.6586 344.33 29.7536 343.654 29.7536Z" fill="white"/>
<defs>
<linearGradient id="paint0_linear_777_299" x1="0" y1="24" x2="520" y2="24" gradientUnits="userSpaceOnUse">
<stop stop-color="#EA580C"/>
<stop offset="0.346154" stop-color="#FED74B"/>
<stop offset="0.677885" stop-color="#D89ADF"/>
<stop offset="1" stop-color="#85BEFE"/>
</linearGradient>
</defs>
</svg>
