<svg width="357" height="60" viewBox="0 0 357 60" fill="none" xmlns="http://www.w3.org/2000/svg">
<rect width="357" height="60" rx="10" fill="url(#paint0_linear_773_26521)"/>
<rect width="357" height="54" rx="10" fill="#191919"/>
<path d="M107.341 36.771C106.008 36.771 104.866 36.4607 103.915 35.8401C102.964 35.2062 102.238 34.3413 101.736 33.2453C101.234 32.1361 100.983 30.8684 100.983 29.4423C100.983 28.0293 101.234 26.7683 101.736 25.6591C102.251 24.5498 102.99 23.6783 103.954 23.0445C104.918 22.3974 106.074 22.0739 107.421 22.0739C108.569 22.0739 109.54 22.2786 110.332 22.6879C111.138 23.0973 111.772 23.6585 112.234 24.3716C112.709 25.0846 113.039 25.8967 113.224 26.8079L110.986 26.9267C110.828 26.0684 110.471 25.3751 109.916 24.8469C109.362 24.3055 108.53 24.0348 107.421 24.0348C106.443 24.0348 105.645 24.2791 105.024 24.7677C104.403 25.2563 103.941 25.9099 103.637 26.7287C103.347 27.5474 103.202 28.4519 103.202 29.4423C103.202 30.4723 103.347 31.39 103.637 32.1955C103.941 33.001 104.403 33.6414 105.024 34.1168C105.658 34.579 106.463 34.8101 107.44 34.8101C108.206 34.8101 108.867 34.645 109.421 34.3149C109.976 33.9848 110.405 33.5358 110.709 32.968C111.026 32.4002 111.197 31.7729 111.224 31.0863H107.46V29.2838H113.264V36.4541H111.798L111.659 33.2849L111.937 33.5226C111.792 34.1564 111.494 34.7177 111.045 35.2062C110.596 35.6948 110.048 36.0778 109.401 36.3551C108.768 36.6324 108.081 36.771 107.341 36.771ZM120.249 36.6918C119.219 36.6918 118.328 36.4673 117.575 36.0183C116.836 35.5694 116.261 34.9289 115.852 34.097C115.456 33.2651 115.258 32.2945 115.258 31.1853C115.258 30.0761 115.456 29.1121 115.852 28.2934C116.261 27.4615 116.836 26.8211 117.575 26.3721C118.315 25.9099 119.186 25.6789 120.19 25.6789C121.14 25.6789 121.979 25.9033 122.705 26.3523C123.431 26.7881 123.993 27.4219 124.389 28.2538C124.798 29.0857 125.003 30.0893 125.003 31.2646V31.7994H117.436C117.489 32.8293 117.76 33.6018 118.249 34.1168C118.75 34.6318 119.424 34.8893 120.269 34.8893C120.89 34.8893 121.405 34.7441 121.814 34.4536C122.223 34.163 122.507 33.7735 122.666 33.2849L124.844 33.4236C124.567 34.4007 124.019 35.193 123.2 35.8005C122.395 36.3947 121.411 36.6918 120.249 36.6918ZM117.436 30.2148H122.784C122.718 29.2772 122.448 28.584 121.972 28.135C121.51 27.686 120.916 27.4615 120.19 27.4615C119.437 27.4615 118.816 27.6992 118.328 28.1746C117.852 28.6368 117.555 29.3168 117.436 30.2148ZM130.784 36.4541C129.781 36.4541 129.041 36.223 128.566 35.7608C128.09 35.2987 127.853 34.579 127.853 33.6018V23.4406H129.952V33.4434C129.952 33.932 130.058 34.2687 130.269 34.4536C130.48 34.6384 130.804 34.7309 131.24 34.7309H132.745V36.4541H130.784ZM126.248 27.6398V25.9166H132.745V27.6398H126.248ZM139.902 36.4541V22.3908H149.053V24.3518H142.041V28.4519H148.815V30.3534H142.041V34.4932H149.211V36.4541H139.902ZM154.512 36.6918C153.416 36.6918 152.538 36.4409 151.878 35.9391C151.231 35.4373 150.907 34.7309 150.907 33.8197C150.907 32.9086 151.178 32.2021 151.719 31.7003C152.274 31.1853 153.126 30.8156 154.274 30.5911L157.899 29.8978C157.899 29.0791 157.708 28.4717 157.325 28.0756C156.942 27.6662 156.374 27.4615 155.621 27.4615C154.948 27.4615 154.42 27.6134 154.037 27.9171C153.654 28.2076 153.39 28.6434 153.244 29.2244L151.085 29.0857C151.283 28.0293 151.772 27.1974 152.551 26.59C153.343 25.9826 154.367 25.6789 155.621 25.6789C157.047 25.6789 158.13 26.0618 158.87 26.8277C159.622 27.5804 159.999 28.6434 159.999 30.0167V34.1168C159.999 34.3677 160.038 34.546 160.118 34.6516C160.21 34.7441 160.355 34.7903 160.553 34.7903H160.93V36.4541C160.864 36.4673 160.758 36.4805 160.613 36.4937C160.467 36.5069 160.316 36.5135 160.157 36.5135C159.708 36.5135 159.319 36.4409 158.989 36.2956C158.672 36.1504 158.434 35.9127 158.275 35.5826C158.117 35.2392 158.038 34.7837 158.038 34.2159L158.256 34.3149C158.15 34.7771 157.919 35.1864 157.562 35.543C157.219 35.8995 156.777 36.1834 156.235 36.3947C155.707 36.5928 155.133 36.6918 154.512 36.6918ZM154.849 35.028C155.483 35.028 156.024 34.9091 156.473 34.6714C156.922 34.4205 157.272 34.0772 157.523 33.6414C157.774 33.2057 157.899 32.7105 157.899 32.1559V31.4824L154.809 32.0767C154.175 32.1955 153.726 32.387 153.462 32.6511C153.211 32.902 153.086 33.2255 153.086 33.6216C153.086 34.0706 153.238 34.4205 153.541 34.6714C153.858 34.9091 154.294 35.028 154.849 35.028ZM162.702 36.4541V25.9166H164.624L164.703 28.7094L164.525 28.65C164.67 27.6992 164.96 27.006 165.396 26.5702C165.845 26.1344 166.446 25.9166 167.199 25.9166H168.209V27.7983H167.199C166.671 27.7983 166.228 27.8841 165.872 28.0558C165.515 28.2274 165.244 28.4915 165.06 28.848C164.888 29.2046 164.802 29.6668 164.802 30.2346V36.4541H162.702ZM172.234 36.4541C171.548 36.4541 170.993 36.2758 170.571 35.9193C170.148 35.5628 169.937 34.995 169.937 34.2159V22.3908H172.036V34.0178C172.036 34.2555 172.096 34.4337 172.215 34.5526C172.347 34.6714 172.532 34.7309 172.769 34.7309H173.601V36.4541H172.234ZM175.58 39.4252V37.702H176.867C177.224 37.702 177.488 37.6491 177.659 37.5435C177.831 37.4379 177.963 37.2596 178.055 37.0087L178.392 36.1372H177.739L173.936 25.9166H176.154L179.046 34.1961L181.799 25.9166H184.037L179.838 37.6822C179.627 38.2896 179.31 38.732 178.887 39.0093C178.478 39.2866 177.904 39.4252 177.164 39.4252H175.58ZM189.661 36.4541L194.731 22.3908H197.445L202.516 36.4541H200.238L198.95 32.7897H193.206L191.938 36.4541H189.661ZM193.88 30.8486H198.297L196.078 24.431L193.88 30.8486ZM208.357 36.6918C207.354 36.6918 206.476 36.4673 205.723 36.0183C204.97 35.5694 204.389 34.9289 203.98 34.097C203.571 33.2651 203.366 32.2945 203.366 31.1853C203.366 30.0761 203.571 29.1121 203.98 28.2934C204.389 27.4615 204.97 26.8211 205.723 26.3721C206.476 25.9099 207.354 25.6789 208.357 25.6789C209.216 25.6789 209.975 25.8307 210.635 26.1344C211.309 26.4249 211.85 26.8541 212.259 27.4219C212.682 27.9897 212.953 28.683 213.071 29.5017L210.873 29.6205C210.767 28.9339 210.49 28.4123 210.041 28.0558C209.592 27.686 209.031 27.5011 208.357 27.5011C207.473 27.5011 206.779 27.8313 206.278 28.4915C205.789 29.1386 205.545 30.0365 205.545 31.1853C205.545 32.3342 205.789 33.2387 206.278 33.8989C206.779 34.546 207.473 34.8695 208.357 34.8695C209.031 34.8695 209.592 34.6846 210.041 34.3149C210.49 33.932 210.767 33.3575 210.873 32.5917L213.071 32.7105C212.953 33.516 212.682 34.2159 212.259 34.8101C211.85 35.4043 211.309 35.8665 210.635 36.1966C209.975 36.5267 209.216 36.6918 208.357 36.6918ZM219.325 36.6918C218.321 36.6918 217.443 36.4673 216.69 36.0183C215.938 35.5694 215.357 34.9289 214.947 34.097C214.538 33.2651 214.333 32.2945 214.333 31.1853C214.333 30.0761 214.538 29.1121 214.947 28.2934C215.357 27.4615 215.938 26.8211 216.69 26.3721C217.443 25.9099 218.321 25.6789 219.325 25.6789C220.183 25.6789 220.942 25.8307 221.603 26.1344C222.276 26.4249 222.818 26.8541 223.227 27.4219C223.65 27.9897 223.92 28.683 224.039 29.5017L221.84 29.6205C221.735 28.9339 221.457 28.4123 221.009 28.0558C220.56 27.686 219.998 27.5011 219.325 27.5011C218.44 27.5011 217.747 27.8313 217.245 28.4915C216.757 29.1386 216.512 30.0365 216.512 31.1853C216.512 32.3342 216.757 33.2387 217.245 33.8989C217.747 34.546 218.44 34.8695 219.325 34.8695C219.998 34.8695 220.56 34.6846 221.009 34.3149C221.457 33.932 221.735 33.3575 221.84 32.5917L224.039 32.7105C223.92 33.516 223.65 34.2159 223.227 34.8101C222.818 35.4043 222.276 35.8665 221.603 36.1966C220.942 36.5267 220.183 36.6918 219.325 36.6918ZM230.292 36.6918C229.262 36.6918 228.371 36.4673 227.618 36.0183C226.879 35.5694 226.305 34.9289 225.895 34.097C225.499 33.2651 225.301 32.2945 225.301 31.1853C225.301 30.0761 225.499 29.1121 225.895 28.2934C226.305 27.4615 226.879 26.8211 227.618 26.3721C228.358 25.9099 229.229 25.6789 230.233 25.6789C231.184 25.6789 232.022 25.9033 232.749 26.3523C233.475 26.7881 234.036 27.4219 234.432 28.2538C234.842 29.0857 235.046 30.0893 235.046 31.2646V31.7994H227.48C227.533 32.8293 227.803 33.6018 228.292 34.1168C228.794 34.6318 229.467 34.8893 230.312 34.8893C230.933 34.8893 231.448 34.7441 231.857 34.4536C232.267 34.163 232.551 33.7735 232.709 33.2849L234.888 33.4236C234.61 34.4007 234.062 35.193 233.244 35.8005C232.438 36.3947 231.455 36.6918 230.292 36.6918ZM227.48 30.2148H232.828C232.762 29.2772 232.491 28.584 232.016 28.135C231.554 27.686 230.959 27.4615 230.233 27.4615C229.48 27.4615 228.86 27.6992 228.371 28.1746C227.896 28.6368 227.599 29.3168 227.48 30.2148ZM241.234 36.6918C240.244 36.6918 239.405 36.5399 238.719 36.2362C238.045 35.9325 237.524 35.5166 237.154 34.9884C236.784 34.4469 236.573 33.8263 236.52 33.1265L238.679 33.0274C238.785 33.6084 239.036 34.0706 239.432 34.4139C239.828 34.7573 240.429 34.9289 241.234 34.9289C241.894 34.9289 242.416 34.8233 242.799 34.612C243.182 34.4007 243.373 34.064 243.373 33.6018C243.373 33.3509 243.307 33.1397 243.175 32.968C243.057 32.7831 242.819 32.6313 242.462 32.5124C242.106 32.3804 241.578 32.2549 240.878 32.1361C239.834 31.938 239.016 31.7069 238.422 31.4428C237.827 31.1787 237.405 30.842 237.154 30.4326C236.903 30.0233 236.778 29.5281 236.778 28.9471C236.778 27.9831 237.134 27.1974 237.847 26.59C238.573 25.9826 239.617 25.6789 240.977 25.6789C241.888 25.6789 242.654 25.8373 243.274 26.1542C243.895 26.458 244.377 26.8739 244.72 27.4021C245.077 27.9171 245.301 28.4981 245.394 29.1452L243.235 29.264C243.169 28.8943 243.037 28.5773 242.839 28.3132C242.654 28.0359 242.403 27.8247 242.086 27.6794C241.769 27.521 241.393 27.4417 240.957 27.4417C240.283 27.4417 239.782 27.5738 239.452 27.8379C239.121 28.102 238.956 28.4453 238.956 28.8679C238.956 29.1848 239.029 29.4423 239.174 29.6403C239.333 29.8384 239.584 30.0035 239.927 30.1355C240.27 30.2544 240.726 30.36 241.294 30.4525C242.39 30.6373 243.248 30.8684 243.869 31.1457C244.489 31.4098 244.925 31.7399 245.176 32.1361C245.427 32.5322 245.552 33.0142 245.552 33.582C245.552 34.2423 245.367 34.8035 244.998 35.2657C244.628 35.7278 244.12 36.0844 243.472 36.3353C242.825 36.5729 242.079 36.6918 241.234 36.6918ZM251.738 36.6918C250.747 36.6918 249.909 36.5399 249.222 36.2362C248.549 35.9325 248.027 35.5166 247.657 34.9884C247.288 34.4469 247.076 33.8263 247.023 33.1265L249.182 33.0274C249.288 33.6084 249.539 34.0706 249.935 34.4139C250.331 34.7573 250.932 34.9289 251.738 34.9289C252.398 34.9289 252.919 34.8233 253.302 34.612C253.685 34.4007 253.877 34.064 253.877 33.6018C253.877 33.3509 253.811 33.1397 253.679 32.968C253.56 32.7831 253.322 32.6313 252.966 32.5124C252.609 32.3804 252.081 32.2549 251.381 32.1361C250.338 31.938 249.519 31.7069 248.925 31.4428C248.331 31.1787 247.908 30.842 247.657 30.4326C247.406 30.0233 247.281 29.5281 247.281 28.9471C247.281 27.9831 247.637 27.1974 248.351 26.59C249.077 25.9826 250.12 25.6789 251.48 25.6789C252.391 25.6789 253.157 25.8373 253.778 26.1542C254.398 26.458 254.88 26.8739 255.224 27.4021C255.58 27.9171 255.805 28.4981 255.897 29.1452L253.738 29.264C253.672 28.8943 253.54 28.5773 253.342 28.3132C253.157 28.0359 252.906 27.8247 252.589 27.6794C252.272 27.521 251.896 27.4417 251.46 27.4417C250.787 27.4417 250.285 27.5738 249.955 27.8379C249.625 28.102 249.46 28.4453 249.46 28.8679C249.46 29.1848 249.532 29.4423 249.678 29.6403C249.836 29.8384 250.087 30.0035 250.43 30.1355C250.774 30.2544 251.229 30.36 251.797 30.4525C252.893 30.6373 253.751 30.8684 254.372 31.1457C254.993 31.4098 255.428 31.7399 255.679 32.1361C255.93 32.5322 256.056 33.0142 256.056 33.582C256.056 34.2423 255.871 34.8035 255.501 35.2657C255.131 35.7278 254.623 36.0844 253.976 36.3353C253.329 36.5729 252.583 36.6918 251.738 36.6918Z" fill="white"/>
<defs>
<linearGradient id="paint0_linear_773_26521" x1="0" y1="30" x2="357" y2="30" gradientUnits="userSpaceOnUse">
<stop stop-color="#EA580C"/>
<stop offset="0.346154" stop-color="#FED74B"/>
<stop offset="0.677885" stop-color="#D89ADF"/>
<stop offset="1" stop-color="#85BEFE"/>
</linearGradient>
</defs>
</svg>
