<svg width="107" height="22" viewBox="0 0 107 22" fill="none" xmlns="http://www.w3.org/2000/svg">
<path d="M2.01562 13.582V7.44141H1.55859C0.5625 7.44141 0 6.91406 0 6.01172C0 5.10938 0.5625 4.58203 1.55859 4.58203H2.10938V3.22266C2.10938 1.93359 2.76562 1.21875 3.92578 1.21875C5.09766 1.21875 5.74219 1.93359 5.74219 3.22266V4.58203H6.72656C7.72266 4.58203 8.28516 5.10938 8.28516 6.01172C8.28516 6.91406 7.72266 7.44141 6.72656 7.44141H5.78906V13.0078C5.78906 14.0156 6.07031 14.3906 6.86719 14.3906C7.19531 14.3906 7.39453 14.332 7.72266 14.332C8.30859 14.332 8.71875 14.7422 8.71875 15.3984C8.71875 15.9375 8.47266 16.3828 8.00391 16.6992C7.5 17.0508 6.76172 17.2383 5.8125 17.2383C3.21094 17.2383 2.01562 16.1133 2.01562 13.582ZM10.2361 19.7578C10.2361 19.1016 10.7283 18.6211 11.4431 18.6211C11.7478 18.6211 11.9587 18.6797 12.3689 18.6914C13.0017 18.6914 13.5056 18.3164 13.7166 17.7188C13.7634 17.6133 13.8455 17.2031 13.8455 17.0625L10.3767 7.00781C10.2595 6.63281 10.2127 6.35156 10.2127 6.09375C10.2127 5.08594 10.9978 4.35938 12.0642 4.35938C13.0955 4.35938 13.74 4.93359 13.9978 6.10547L16.0134 14.0391H16.1658L18.2517 6.10547C18.533 4.92188 19.1423 4.35938 20.1502 4.35938C21.1814 4.35938 21.9314 5.08594 21.9314 6.08203C21.9314 6.35156 21.8728 6.62109 21.7439 7.00781L18.2517 17.1797C17.2439 20.1328 15.6619 21.3867 12.7908 21.3867C11.8181 21.3867 11.0681 21.1641 10.6462 20.7539C10.3767 20.4844 10.2361 20.1445 10.2361 19.7578ZM28.1128 19.2539C28.1128 20.5898 27.4448 21.3164 26.2378 21.3164C25.0191 21.3164 24.3628 20.5898 24.3628 19.2539V6.38672C24.3628 5.0625 25.0191 4.32422 26.2144 4.32422C27.3277 4.32422 27.9956 4.93359 28.0894 6.05859V6.41016H28.2769C28.7808 5.08594 30.1167 4.24219 31.8511 4.24219C34.7339 4.24219 36.4331 6.33984 36.4331 9.92578V11.3672C36.4331 14.9648 34.7222 17.0859 31.8277 17.0859C30.1284 17.0859 28.8394 16.3242 28.3003 14.9883H28.1128V19.2539ZM28.1128 11.3555C28.1128 13.0781 29.0034 14.168 30.3628 14.168C31.7456 14.168 32.5542 13.0547 32.5542 11.1562V10.1719C32.5542 8.25 31.7456 7.16016 30.3394 7.16016C28.9566 7.16016 28.1128 8.22656 28.1128 10.0547V11.3555ZM38.4309 11.3906V10.0078C38.4309 6.46875 40.7747 4.125 44.302 4.125C47.6184 4.125 49.9622 6.44531 49.9622 9.55078C49.9622 10.9805 49.4583 11.4961 48.1106 11.4961H42.263V11.9531C42.2864 13.4297 43.2708 14.4258 44.9466 14.4258C45.8489 14.4258 46.4583 14.2266 46.9388 13.875C47.513 13.5117 47.7591 13.2891 48.345 13.2891C49.1067 13.2891 49.6106 13.7812 49.6106 14.5781C49.6106 15.2461 49.2005 15.832 48.4856 16.2773C47.6302 16.8867 46.2591 17.25 44.677 17.25C40.8098 17.25 38.4309 15.0469 38.4309 11.3906ZM42.263 9.33984H46.4114V9.30469C46.4114 7.875 45.6145 6.9375 44.3841 6.9375C43.0598 6.9375 42.263 7.89844 42.263 9.30469V9.33984ZM53.6827 14.25L51.7491 6.9375C51.6553 6.50391 51.6202 6.29297 51.6202 6.10547C51.6202 5.0625 52.3702 4.34766 53.4952 4.34766C54.4678 4.34766 55.1006 4.96875 55.2764 6.09375L56.5655 13.2891H56.7295L58.3584 6.39844C58.6748 4.99219 59.3428 4.34766 60.5147 4.34766C61.71 4.34766 62.4248 5.01562 62.7412 6.39844L64.3819 13.2891H64.5577L65.9287 6.14062C66.128 5.00391 66.7842 4.34766 67.7217 4.34766C68.8584 4.34766 69.585 5.05078 69.585 6.05859C69.585 6.26953 69.5147 6.59766 69.4209 6.98438L67.3936 14.25C66.8311 16.2891 66.0577 17.0625 64.7452 17.0625C63.3389 17.0625 62.5655 16.3125 62.085 14.25L60.5967 8.48438H60.4561L59.003 14.25C58.5225 16.3125 57.7842 17.0625 56.3545 17.0625C55.0069 17.0625 54.1866 16.2422 53.6827 14.25ZM77.0672 4.125C80.6766 4.125 83.0789 6.375 83.0789 10.0312V11.25C83.0789 15.0703 80.6766 17.25 77.0672 17.25C73.4461 17.25 71.0437 15.0703 71.0437 11.2617V10.0547C71.0437 6.375 73.4461 4.125 77.0672 4.125ZM77.0672 6.9375C75.7312 6.9375 74.9227 8.07422 74.9227 10.0312V11.332C74.9227 13.2891 75.7312 14.4375 77.0672 14.4375C78.4148 14.4375 79.1883 13.2891 79.1883 11.332V10.0312C79.1883 8.07422 78.4148 6.9375 77.0672 6.9375ZM89.2252 15C89.2252 16.3125 88.522 17.0625 87.3033 17.0625C86.0728 17.0625 85.4634 16.3125 85.4634 15V6.38672C85.4634 5.0625 86.108 4.32422 87.315 4.32422C88.4048 4.32422 89.0259 4.93359 89.108 6.07031V6.24609H89.2838C89.7056 4.95703 90.5963 4.24219 91.8033 4.24219C92.3189 4.24219 92.7291 4.38281 93.022 4.66406C93.3267 4.94531 93.4908 5.35547 93.4908 5.88281C93.4908 6.39844 93.3384 6.77344 93.0338 7.03125C92.7525 7.26562 92.3189 7.39453 91.7564 7.41797C90.0572 7.47656 89.2252 8.40234 89.2252 10.1953V15ZM99.2503 15C99.2503 16.3125 98.6058 17.0625 97.4105 17.0625C96.1917 17.0625 95.5003 16.3125 95.5003 15V2.07422C95.5003 0.738281 96.1566 0 97.3753 0C98.5823 0 99.2503 0.738281 99.2503 2.07422V9.01172H99.4613L103.364 4.96875C103.879 4.42969 104.325 4.20703 104.899 4.20703C105.836 4.20703 106.516 4.88672 106.516 5.82422C106.516 6.30469 106.328 6.72656 105.93 7.125L103.106 9.96094L106.246 13.8398C106.668 14.3438 106.879 14.8477 106.879 15.3398C106.879 16.2891 106.129 17.0391 105.168 17.0391C104.512 17.0391 104.02 16.7695 103.528 16.1719L100.2 11.9648L99.2503 12.8789V15Z" fill="#333333"/>
</svg>
