<svg preserveAspectRatio="none" width="100%" height="100%" overflow="visible" style="display: block;" viewBox="0 0 21.3043 21.3043" fill="none" xmlns="http://www.w3.org/2000/svg">
<g id="Frame" clip-path="url(#clip0_0_22)">
<path id="Vector" d="M18.3008 18.0641C14.1997 22.289 7.45693 22.3955 3.2387 18.3024C-0.979525 14.2094 -1.0714 7.46528 3.02965 3.2404C7.13071 -0.984488 13.8748 -1.09234 18.0917 3.00072L16.8547 4.27631C13.3395 0.864981 7.72057 0.954192 4.30258 4.47471C0.88459 7.99522 0.96315 13.6142 4.47834 17.0269C7.9922 20.4382 13.6125 20.349 17.0292 16.8285L18.3008 18.0641ZM18.3021 18.0628C17.9599 18.4143 17.398 18.4236 17.0465 18.0814C16.6963 17.7405 16.6883 17.1786 17.0292 16.8271C17.3714 16.4743 17.9333 16.465 18.2848 16.8058C18.6363 17.148 18.643 17.7113 18.3021 18.0628ZM21.2913 7.34411L14.3795 6.82615L20.567 0.450881L21.2913 7.34411Z" fill="var(--fill-0, #666666)"/>
</g>
<defs>
<clipPath id="clip0_0_22">
<rect width="21.3043" height="21.3043" fill="white"/>
</clipPath>
</defs>
</svg>
