<svg preserveAspectRatio="none" width="100%" height="100%" overflow="visible" style="display: block;" viewBox="0 0 24 24" fill="none" xmlns="http://www.w3.org/2000/svg">
<g id="streamline-ultimate:human-resources-workflow" clip-path="url(#clip0_0_15)">
<path id="Vector" d="M15.749 15.75C15.5257 14.9153 15.0413 14.174 14.3666 13.6342C13.6919 13.0945 12.8623 12.7846 11.999 12.75C11.1357 12.7846 10.3061 13.0945 9.63138 13.6342C8.9567 14.174 8.47231 14.9153 8.249 15.75M16.5 4.2C17.8699 4.99221 19.0078 6.13013 19.8 7.5M19.8 16.5C19.0078 17.8699 17.8699 19.0078 16.5 19.8M7.5 19.8C6.13013 19.0078 4.99221 17.8699 4.2 16.5M4.2 7.5C4.99221 6.13013 6.13013 4.99221 7.5 4.2M9.749 9.75C9.74269 10.0494 9.79621 10.347 9.90642 10.6255C10.0166 10.9039 10.1813 11.1576 10.3908 11.3716C10.6003 11.5855 10.8505 11.7555 11.1265 11.8716C11.4026 11.9877 11.699 12.0474 11.9985 12.0474C12.298 12.0474 12.5944 11.9877 12.8705 11.8716C13.1465 11.7555 13.3967 11.5855 13.6062 11.3716C13.8157 11.1576 13.9804 10.9039 14.0906 10.6255C14.2008 10.347 14.2543 10.0494 14.248 9.75C14.2356 9.16161 13.9931 8.6015 13.5726 8.18976C13.1521 7.77802 12.587 7.54743 11.9985 7.54743C11.41 7.54743 10.8449 7.77802 10.4244 8.18976C10.0039 8.6015 9.76141 9.16161 9.749 9.75ZM10.124 2.625C10.124 3.12228 10.3215 3.59919 10.6732 3.95083C11.0248 4.30246 11.5017 4.5 11.999 4.5C12.4963 4.5 12.9732 4.30246 13.3248 3.95083C13.6765 3.59919 13.874 3.12228 13.874 2.625C13.874 2.12772 13.6765 1.65081 13.3248 1.29917C12.9732 0.947544 12.4963 0.75 11.999 0.75C11.5017 0.75 11.0248 0.947544 10.6732 1.29917C10.3215 1.65081 10.124 2.12772 10.124 2.625ZM19.499 12C19.499 12.4973 19.6965 12.9742 20.0482 13.3258C20.3998 13.6775 20.8767 13.875 21.374 13.875C21.8713 13.875 22.3482 13.6775 22.6998 13.3258C23.0515 12.9742 23.249 12.4973 23.249 12C23.249 11.5027 23.0515 11.0258 22.6998 10.6742C22.3482 10.3225 21.8713 10.125 21.374 10.125C20.8767 10.125 20.3998 10.3225 20.0482 10.6742C19.6965 11.0258 19.499 11.5027 19.499 12ZM10.124 21.375C10.124 21.8723 10.3215 22.3492 10.6732 22.7008C11.0248 23.0525 11.5017 23.25 11.999 23.25C12.4963 23.25 12.9732 23.0525 13.3248 22.7008C13.6765 22.3492 13.874 21.8723 13.874 21.375C13.874 20.8777 13.6765 20.4008 13.3248 20.0492C12.9732 19.6975 12.4963 19.5 11.999 19.5C11.5017 19.5 11.0248 19.6975 10.6732 20.0492C10.3215 20.4008 10.124 20.8777 10.124 21.375ZM0.749 12C0.749 12.4973 0.946544 12.9742 1.29817 13.3258C1.64981 13.6775 2.12672 13.875 2.624 13.875C3.12128 13.875 3.59819 13.6775 3.94983 13.3258C4.30146 12.9742 4.499 12.4973 4.499 12C4.499 11.5027 4.30146 11.0258 3.94983 10.6742C3.59819 10.3225 3.12128 10.125 2.624 10.125C2.12672 10.125 1.64981 10.3225 1.29817 10.6742C0.946544 11.0258 0.749 11.5027 0.749 12Z" stroke="currentColor" stroke-width="1.5" stroke-linecap="round" stroke-linejoin="round"/>
</g>
<defs>
<clipPath id="clip0_0_15">
<rect width="24" height="24" fill="white"/>
</clipPath>
</defs>
</svg>
