<svg preserveAspectRatio="none" width="100%" height="100%" overflow="visible" style="display: block;" viewBox="0 0 34.1876 24.3053" fill="none" xmlns="http://www.w3.org/2000/svg">
<g id="Group 3">
<path id="Vector" d="M21.1912 23.7712H1.25749C1.09547 23.7796 0.93344 23.7549 0.781261 23.6987C0.629082 23.6425 0.489939 23.5558 0.372296 23.4441C0.254653 23.3324 0.161021 23.1979 0.0970056 23.0489C0.0329901 22.8998 0 22.7392 0 22.577C0 22.4148 0.0329901 22.2542 0.0970056 22.1052C0.161021 21.9561 0.254653 21.8216 0.372296 21.7099C0.489939 21.5981 0.629082 21.5116 0.781261 21.4553C0.93344 21.3991 1.09547 21.3744 1.25749 21.3828H21.1912C21.3532 21.3744 21.5153 21.3991 21.6674 21.4553C21.8196 21.5116 21.9588 21.5981 22.0764 21.7099C22.194 21.8216 22.2878 21.9561 22.3518 22.1052C22.4158 22.2542 22.4488 22.4148 22.4488 22.577C22.4488 22.7392 22.4158 22.8998 22.3518 23.0489C22.2878 23.1979 22.194 23.3324 22.0764 23.4441C21.9588 23.5558 21.8196 23.6425 21.6674 23.6987C21.5153 23.7549 21.3532 23.7796 21.1912 23.7712Z" fill="var(--fill-0, #D2D2D2)"/>
<path id="Vector_2" d="M21.1913 16.7296H1.25754C1.09552 16.738 0.933491 16.7133 0.781312 16.657C0.629133 16.6008 0.48999 16.5142 0.372347 16.4025C0.254704 16.2908 0.161072 16.1563 0.0970566 16.0072C0.0330411 15.8581 5.10044e-05 15.6976 5.10044e-05 15.5354C5.10044e-05 15.3731 0.0330411 15.2126 0.0970566 15.0635C0.161072 14.9144 0.254704 14.7799 0.372347 14.6682C0.48999 14.5565 0.629133 14.4699 0.781312 14.4136C0.933491 14.3574 1.09552 14.3327 1.25754 14.3411H21.1913C21.3533 14.3327 21.5153 14.3574 21.6675 14.4136C21.8197 14.4699 21.9588 14.5565 22.0764 14.6682C22.1941 14.7799 22.2878 14.9144 22.3518 15.0635C22.4158 15.2126 22.4488 15.3731 22.4488 15.5354C22.4488 15.6976 22.4158 15.8581 22.3518 16.0072C22.2878 16.1563 22.1941 16.2908 22.0764 16.4025C21.9588 16.5142 21.8197 16.6008 21.6675 16.657C21.5153 16.7133 21.3533 16.738 21.1913 16.7296V16.7296Z" fill="var(--fill-0, #D2D2D2)"/>
<path id="Vector_3" d="M21.1917 9.68549H1.25794C1.09592 9.69386 0.93389 9.66916 0.781711 9.61293C0.629531 9.55669 0.490388 9.4701 0.372746 9.35839C0.255103 9.24667 0.161471 9.11216 0.0974553 8.96308C0.0334399 8.81401 0.000449739 8.65349 0.000449739 8.49125C0.000449739 8.32902 0.0334399 8.16845 0.0974553 8.01938C0.161471 7.87031 0.255103 7.73584 0.372746 7.62412C0.490388 7.5124 0.629531 7.42577 0.781711 7.36954C0.93389 7.3133 1.09592 7.28864 1.25794 7.29702L21.1917 7.29702C21.3537 7.28864 21.5157 7.3133 21.6679 7.36954C21.8201 7.42577 21.9592 7.5124 22.0768 7.62412C22.1945 7.73584 22.2882 7.87031 22.3522 8.01938C22.4162 8.16845 22.4492 8.32902 22.4492 8.49125C22.4492 8.65349 22.4162 8.81401 22.3522 8.96308C22.2882 9.11216 22.1945 9.24667 22.0768 9.35839C21.9592 9.4701 21.8201 9.55669 21.6679 9.61293C21.5157 9.66916 21.3537 9.69386 21.1917 9.68549V9.68549Z" fill="var(--fill-0, #D2D2D2)"/>
<path id="Vector_4" d="M21.1916 2.64132L1.25793 2.64132C1.09591 2.6497 0.933878 2.62504 0.781698 2.5688C0.629519 2.51257 0.490376 2.42594 0.372733 2.31422C0.255091 2.2025 0.161459 2.06803 0.0974431 1.91896C0.0334276 1.76989 0.000437502 1.60932 0.000437502 1.44709C0.000437502 1.28485 0.0334276 1.12433 0.0974431 0.975256C0.161459 0.826183 0.255091 0.691673 0.372733 0.579955C0.490376 0.468236 0.629519 0.381647 0.781698 0.325412C0.933878 0.269178 1.09591 0.244478 1.25793 0.252853L21.1916 0.252853C21.3537 0.244478 21.5157 0.269178 21.6679 0.325412C21.82 0.381647 21.9592 0.468236 22.0768 0.579955C22.1945 0.691673 22.2882 0.826183 22.3522 0.975256C22.4162 1.12433 22.4492 1.28485 22.4492 1.44709C22.4492 1.60932 22.4162 1.76989 22.3522 1.91896C22.2882 2.06803 22.1945 2.2025 22.0768 2.31422C21.9592 2.42594 21.82 2.51257 21.6679 2.5688C21.5157 2.62504 21.3537 2.6497 21.1916 2.64132V2.64132Z" fill="var(--fill-0, #D2D2D2)"/>
<g id="Group 2">
<path id="Vector_5" d="M30.134 24.3053C29.0615 24.3045 28.0333 23.8783 27.2746 23.1203C26.516 22.3622 26.089 21.3342 26.0873 20.2618V16.2151H34.1806V20.2618C34.1781 21.334 33.7509 22.3615 32.9924 23.1193C32.234 23.8772 31.2061 24.3036 30.134 24.3053ZM28.1569 18.2847V20.2618C28.1569 20.7862 28.3652 21.2891 28.7359 21.6598C29.1067 22.0306 29.6096 22.2389 30.134 22.2389C30.6583 22.2389 31.1612 22.0306 31.532 21.6598C31.9028 21.2891 32.111 20.7862 32.111 20.2618V18.2847H28.1569Z" fill="var(--fill-0, #D2D2D2)"/>
<path id="Vector_6" d="M26.0837 16.2183H30.14V12.162H26.0837V16.2183Z" fill="var(--fill-0, #D2D2D2)"/>
<path id="Vector_7" d="M30.1308 12.1624H34.1871V8.1062H30.1308V12.1624Z" fill="var(--fill-0, #D2D2D2)"/>
<path id="Vector_8" d="M26.0838 8.10948H30.14V4.05323H26.0838V8.10948Z" fill="var(--fill-0, #D2D2D2)"/>
<path id="Vector_9" d="M30.1313 4.05625H34.1876V0H30.1313V4.05625Z" fill="var(--fill-0, #D2D2D2)"/>
</g>
</g>
</svg>
