<svg preserveAspectRatio="none" width="100%" height="100%" overflow="visible" style="display: block;" viewBox="0 0 20 20" fill="none" xmlns="http://www.w3.org/2000/svg">
<g id="prime:arrow-up">
<path id="Vector" d="M15 9.79144C14.9179 9.79183 14.8366 9.77581 14.7607 9.74433C14.6849 9.71285 14.6161 9.66654 14.5584 9.60811L10 5.04978L5.4417 9.60811C5.32322 9.71851 5.16652 9.77861 5.0046 9.77576C4.84268 9.7729 4.68819 9.7073 4.57368 9.59279C4.45917 9.47828 4.39358 9.3238 4.39072 9.16188C4.38787 8.99996 4.44797 8.84326 4.55837 8.72478L9.55837 3.72478C9.67556 3.60773 9.83441 3.54199 10 3.54199C10.1657 3.54199 10.3245 3.60773 10.4417 3.72478L15.4417 8.72478C15.5587 8.84196 15.6245 9.00082 15.6245 9.16644C15.6245 9.33207 15.5587 9.49092 15.4417 9.60811C15.384 9.66654 15.3152 9.71285 15.2394 9.74433C15.1635 9.77581 15.0822 9.79183 15 9.79144Z" fill="currentColor"/>
<path id="Vector_2" d="M10 16.4583C9.83491 16.4562 9.67719 16.3896 9.56045 16.2729C9.4437 16.1561 9.37716 15.9984 9.375 15.8333V4.16667C9.375 4.00091 9.44085 3.84194 9.55806 3.72472C9.67527 3.60751 9.83424 3.54167 10 3.54167C10.1658 3.54167 10.3247 3.60751 10.4419 3.72472C10.5592 3.84194 10.625 4.00091 10.625 4.16667V15.8333C10.6228 15.9984 10.5563 16.1561 10.4396 16.2729C10.3228 16.3896 10.1651 16.4562 10 16.4583Z" fill="currentColor"/>
</g>
</svg>
