<svg preserveAspectRatio="none" width="100%" height="100%" overflow="visible" style="display: block;" viewBox="0 0 24.3052 24.3052" fill="none" xmlns="http://www.w3.org/2000/svg">
<g id="Group 4">
<path id="Vector" d="M19.1327 24.3052H5.16306C3.79425 24.3035 2.48197 23.759 1.51408 22.7911C0.546183 21.8233 0.00167541 20.511 0 19.1422V5.15985C0.00167685 3.79133 0.546324 2.47942 1.51431 1.51203C2.48229 0.544638 3.79454 0.000837525 5.16306 0L19.1453 0C20.5133 0.00167541 21.8248 0.54581 22.7921 1.51311C23.7594 2.48041 24.3035 3.79188 24.3052 5.15985V19.139C24.3052 19.818 24.1714 20.4903 23.9114 21.1175C23.6514 21.7447 23.2702 22.3145 22.7898 22.7943C22.3094 23.2741 21.7392 23.6545 21.1117 23.9138C20.4842 24.173 19.8116 24.306 19.1327 24.3052V24.3052ZM5.16306 2.28236C4.39986 2.2832 3.66812 2.58652 3.12816 3.12588C2.5882 3.66524 2.28404 4.39666 2.28236 5.15985V19.139C2.2832 19.9027 2.58703 20.635 3.12708 21.175C3.66713 21.7151 4.39931 22.0188 5.16306 22.0197H19.1453C19.9085 22.018 20.6399 21.7139 21.1793 21.1739C21.7187 20.6339 22.022 19.9022 22.0229 19.139V5.15668C22.022 4.39378 21.7186 3.66236 21.1791 3.1229C20.6397 2.58345 19.9082 2.28003 19.1453 2.27919L5.16306 2.28236Z" fill="var(--fill-0, #D9D9D9)"/>
<path id="Vector_2" d="M23.1534 16.4826V19.1417C23.1534 20.2079 22.7298 21.2305 21.9759 21.9845C21.222 22.7384 20.1993 23.162 19.1331 23.162H5.16347C4.63525 23.1624 4.11217 23.0587 3.62404 22.8568C3.13592 22.655 2.69228 22.3589 2.31863 21.9856C1.94498 21.6122 1.64856 21.1689 1.44633 20.6809C1.24409 20.193 1.14005 19.6699 1.14005 19.1417V14.6846C3.38127 14.2034 6.79056 14.0515 10.928 15.7071L13.4921 13.2601L15.2395 17.6919C15.2395 17.6919 15.708 16.0616 17.2211 16.2927C18.7343 16.5238 21.1844 17.3437 22.2322 16.6441C22.5101 16.4821 22.8369 16.4248 23.1534 16.4826V16.4826Z" fill="var(--fill-0, #D9D9D9)"/>
<path id="Vector_3" d="M18.2561 8.01491C19.1145 8.01491 19.8105 7.31901 19.8105 6.4606C19.8105 5.60219 19.1145 4.90634 18.2561 4.90634C17.3977 4.90634 16.7019 5.60219 16.7019 6.4606C16.7019 7.31901 17.3977 8.01491 18.2561 8.01491Z" fill="var(--fill-0, #D9D9D9)"/>
</g>
</svg>
