<svg preserveAspectRatio="none" width="100%" height="100%" overflow="visible" style="display: block;" viewBox="0 0 25.7287 12.1526" fill="none" xmlns="http://www.w3.org/2000/svg">
<g id="Group 1">
<path id="Vector" d="M0.000200255 6.54306C-0.00330593 6.40556 0.0393148 6.27086 0.121328 6.16045C0.21805 6.03618 0.334384 5.92848 0.465716 5.84159C0.664352 5.73808 0.869962 5.64855 1.08108 5.57372L1.69653 5.31863L4.15808 4.28235C4.49925 4.12292 5.13378 3.85508 6.07121 3.48521L7.24138 3.00693L7.66229 2.85708L7.73562 2.82524C7.75556 2.82072 7.77624 2.82072 7.79619 2.82524C7.84331 2.80408 7.89439 2.79318 7.94604 2.79332C8.04431 2.78792 8.14266 2.80233 8.23523 2.83575C8.32781 2.86916 8.41279 2.92093 8.48496 2.98786C8.54637 3.04638 8.59542 3.11656 8.62936 3.1943C8.66331 3.27205 8.68143 3.35578 8.68261 3.4406V4.26327C8.67975 4.41408 8.63204 4.56055 8.54553 4.68411C8.45875 4.82342 8.32715 4.92917 8.17241 4.98389L3.14414 7.04049L8.17241 9.09709C8.32171 9.15813 8.45099 9.25972 8.54553 9.39041C8.63537 9.50863 8.68355 9.65326 8.68261 9.80174V10.6116C8.68228 10.6975 8.66458 10.7825 8.63061 10.8614C8.59664 10.9403 8.54714 11.0115 8.48496 11.0708C8.41408 11.1399 8.32951 11.1935 8.23671 11.2281C8.14392 11.2627 8.04489 11.2776 7.94604 11.2717C7.89475 11.2714 7.84395 11.2617 7.79619 11.243L7.66229 11.1984L7.24138 11.0484L6.07121 10.567L4.15808 9.77302L1.69653 8.73674L1.08108 8.48172C0.880205 8.402 0.67616 8.31269 0.465716 8.21066C0.334733 8.14995 0.222439 8.05523 0.140556 7.93633C0.0586717 7.81743 0.0102107 7.67875 0.000200255 7.53473L0.000200255 6.54306Z" fill="var(--fill-0, white)"/>
<path id="Vector_2" d="M15.0212 12.1329C14.8621 12.1366 14.7049 12.0981 14.5655 12.0214C14.426 11.9447 14.3093 11.8324 14.2272 11.6961C14.1576 11.5979 14.1019 11.4906 14.0615 11.3772L13.9562 11.0935L11.6605 6.02051L11.4947 5.6442C11.3055 5.23607 10.9356 4.42622 10.3851 3.21457C9.67297 1.67344 9.31795 0.823159 9.32007 0.663732C9.32017 0.57407 9.34057 0.485606 9.37978 0.404973C9.41899 0.324341 9.47598 0.253652 9.54645 0.198216C9.70441 0.0639214 9.90681 -0.00661378 10.114 0.000488642H10.8666C11.0233 -0.00198675 11.1778 0.037171 11.3145 0.113909C11.4511 0.190648 11.5651 0.30226 11.6445 0.437357L11.8103 0.756212L11.9155 1.04315L12.5118 2.39828L14.2081 6.15121L14.4345 6.62949L15.4836 8.94119C15.8887 9.77009 16.2453 10.6218 16.5517 11.492C16.5511 11.5812 16.5305 11.669 16.4913 11.7491C16.4521 11.8291 16.3954 11.8993 16.3253 11.9544C16.1662 12.0889 15.9627 12.1594 15.7545 12.1521L15.0212 12.1329Z" fill="var(--fill-0, white)"/>
<path id="Vector_3" d="M17.7988 11.2752C17.6975 11.2815 17.596 11.267 17.5005 11.2324C17.4051 11.1979 17.3178 11.144 17.244 11.0743C17.1824 11.0147 17.1334 10.9433 17.1 10.8645C17.0666 10.7856 17.0494 10.7008 17.0495 10.6151V9.80522C17.048 9.65816 17.0926 9.51432 17.177 9.39388C17.2716 9.25938 17.4052 9.15705 17.5597 9.10056L22.6007 7.04396L17.5597 4.98737C17.4056 4.92037 17.2747 4.80946 17.1834 4.66851C17.0987 4.54665 17.0521 4.40237 17.0495 4.25398V3.43131C17.0496 3.34601 17.0675 3.26166 17.1021 3.18369C17.1367 3.10572 17.1872 3.03588 17.2504 2.97856C17.4008 2.84464 17.5976 2.77481 17.7988 2.78403C17.8465 2.78283 17.8936 2.79384 17.9359 2.81595C17.9622 2.81087 17.9893 2.81087 18.0156 2.81595L18.0858 2.84778C18.0634 2.84778 18.2005 2.88604 18.4907 2.99764L19.6736 3.47592C19.6162 3.44616 20.254 3.71187 21.5868 4.27306C22.3159 4.57278 23.1513 4.9278 24.093 5.33806L24.3353 5.42735L24.6796 5.56443C24.8816 5.63647 25.0769 5.72612 25.2632 5.8323C25.3975 5.8928 25.5123 5.98967 25.5946 6.11192C25.6768 6.23418 25.7233 6.37694 25.7287 6.52419V7.51267C25.7273 7.64847 25.6827 7.78026 25.6012 7.8889C25.5129 8.01333 25.3973 8.11584 25.2632 8.1886C25.0846 8.27788 24.8678 8.37359 24.6255 8.47562L23.9878 8.73072L18.4333 11.0551C18.2739 11.1348 18.1782 11.1859 18.1495 11.205L18.0889 11.2496L17.7988 11.2752Z" fill="var(--fill-0, white)"/>
</g>
</svg>
