<svg preserveAspectRatio="none" width="100%" height="100%" overflow="visible" style="display: block;" viewBox="0 0 24.3478 24.3478" fill="none" xmlns="http://www.w3.org/2000/svg">
<g id="Frame">
<path id="Vector" d="M8.96379 10.2698H17.262C17.3125 10.2698 17.3609 10.2898 17.3965 10.3255C17.4322 10.3612 17.4522 10.4096 17.4522 10.46V11.6013C17.4522 11.6518 17.4322 11.7002 17.3965 11.7358C17.3609 11.7715 17.3125 11.7915 17.262 11.7915H8.96379C8.91334 11.7915 8.86496 11.7715 8.82929 11.7358C8.79362 11.7002 8.77358 11.6518 8.77358 11.6013V10.46C8.77358 10.4096 8.79362 10.3612 8.82929 10.3255C8.86496 10.2898 8.91334 10.2698 8.96379 10.2698ZM8.96379 14.0741H15.0983C15.1488 14.0741 15.1971 14.0942 15.2328 14.1299C15.2685 14.1655 15.2885 14.2139 15.2885 14.2644V15.4057C15.2885 15.4561 15.2685 15.5045 15.2328 15.5402C15.1971 15.5758 15.1488 15.5959 15.0983 15.5959H8.96379C8.91334 15.5959 8.86496 15.5758 8.82929 15.5402C8.79362 15.5045 8.77358 15.4561 8.77358 15.4057V14.2644C8.77358 14.2139 8.79362 14.1655 8.82929 14.1299C8.86496 14.0942 8.91334 14.0741 8.96379 14.0741ZM7.41828 7.41654V21.1122H18.8313V7.41654H7.41828ZM6.46719 5.70458H19.7824C20.2026 5.70458 20.5433 6.04524 20.5433 6.46545V22.0633C20.5433 22.4835 20.2026 22.8241 19.7824 22.8241H6.46719C6.04698 22.8241 5.70632 22.4835 5.70632 22.0633V6.46545C5.70632 6.04524 6.04698 5.70458 6.46719 5.70458ZM4.3748 4.37306V20.1611C4.3748 20.2116 4.35476 20.2599 4.31909 20.2956C4.28341 20.3313 4.23503 20.3513 4.18458 20.3513H2.85306C2.80261 20.3513 2.75423 20.3313 2.71856 20.2956C2.68288 20.2599 2.66284 20.2116 2.66284 20.1611V3.42197C2.66284 3.00176 3.0035 2.6611 3.42371 2.6611H18.4509C18.5013 2.6611 18.5497 2.68114 18.5854 2.71681C18.6211 2.75249 18.6411 2.80087 18.6411 2.85132V4.18284C18.6411 4.23329 18.6211 4.28167 18.5854 4.31734C18.5497 4.35302 18.5013 4.37306 18.4509 4.37306H4.3748Z" fill="var(--fill-0, #666666)"/>
</g>
</svg>
