<svg preserveAspectRatio="none" width="100%" height="100%" overflow="visible" style="display: block;" viewBox="0 0 10 116" fill="none" xmlns="http://www.w3.org/2000/svg">
<g id="Group 29">
<path id="Vector 18" d="M4 114C3.99999 114.552 4.44771 115 4.99999 115C5.55228 115 5.99999 114.552 6 114L5 114L4 114ZM5 4.37114e-08L4 0L4 2.03571L5 2.03571L6 2.03571L6 8.74228e-08L5 4.37114e-08ZM5 6.10714L4 6.10714L4 10.1786L5 10.1786L6 10.1786L6 6.10714L5 6.10714ZM5 14.25L4 14.25L4 18.3214L5 18.3214L6 18.3214L6 14.25L5 14.25ZM5 22.3929L4 22.3929L4 26.4643L5 26.4643L6 26.4643L6 22.3929L5 22.3929ZM5 30.5357L4 30.5357L4 34.6071L5 34.6071L6 34.6071L6 30.5357L5 30.5357ZM5 38.6786L4 38.6786L4 42.75L5 42.75L6 42.75L6 38.6786L5 38.6786ZM5 46.8214L4 46.8214L4 50.8929L5 50.8929L6 50.8929L6 46.8214L5 46.8214ZM5 54.9643L4 54.9643L4 59.0357L5 59.0357L6 59.0357L6 54.9643L5 54.9643ZM5 63.1072L4 63.1072L4 67.1786L5 67.1786L6 67.1786L6 63.1072L5 63.1072ZM5 71.25L4 71.25L4 75.3214L5 75.3214L6 75.3214L6 71.25L5 71.25ZM5 79.3929L4 79.3929L4 83.4643L5 83.4643L6 83.4643L6 79.3929L5 79.3929ZM5 87.5357L4 87.5357L4 91.6071L5 91.6071L6 91.6071L6 87.5357L5 87.5357ZM5 95.6786L4 95.6786L4 99.75L5 99.75L6 99.75L6 95.6786L5 95.6786ZM5 103.821L4 103.821L4 107.893L5 107.893L6 107.893L6 103.821L5 103.821ZM5 111.964L4 111.964L4 114L5 114L6 114L6 111.964L5 111.964Z" fill="var(--stroke-0, #A61FE0)" fill-opacity="0.5"/>
<g id="Ellipse 1">
<circle cx="5" cy="111" r="3" fill="var(--fill-0, #A61FE0)"/>
<circle cx="5" cy="111" r="4" stroke="var(--stroke-0, #A61FE0)" stroke-opacity="0.55" stroke-width="2"/>
</g>
</g>
</svg>
