<svg preserveAspectRatio="none" width="100%" height="100%" overflow="visible" style="display: block;" viewBox="0 0 24 24" fill="none" xmlns="http://www.w3.org/2000/svg">
<g id="fluent:person-support-16-regular">
<path id="Vector" d="M12 18C11.476 18.0001 10.9685 17.8174 10.5648 17.4833C10.1612 17.1492 9.88681 16.6847 9.789 16.17C8.31769 15.7153 7.02202 14.8187 6.078 13.602C5.36533 12.6843 4.87564 11.6135 4.64755 10.4742C4.41947 9.33481 4.45923 8.15805 4.7637 7.03669C5.06817 5.91534 5.62902 4.88007 6.40202 4.01253C7.17501 3.145 8.139 2.46894 9.21796 2.03767C10.2969 1.6064 11.4613 1.43173 12.6193 1.52742C13.7773 1.62312 14.8973 1.98657 15.8908 2.5891C16.8843 3.19163 17.7242 4.01677 18.3443 4.99943C18.9644 5.98208 19.3477 7.09538 19.464 8.2515C19.5045 8.664 19.164 9 18.75 9C18.336 9 18.0045 8.6625 17.955 8.2515C17.8211 7.19075 17.4062 6.18503 16.7533 5.33842C16.1003 4.49181 15.233 3.83505 14.241 3.43611C13.2491 3.03717 12.1685 2.91053 11.1112 3.06929C10.0539 3.22806 9.05824 3.66647 8.22721 4.33916C7.39618 5.01184 6.75999 5.89437 6.38447 6.89542C6.00895 7.89648 5.90775 8.97969 6.09133 10.033C6.2749 11.0863 6.73659 12.0714 7.42863 12.8864C8.12066 13.7013 9.0179 14.3166 10.0275 14.6685C10.2184 14.3203 10.498 14.0288 10.838 13.8236C11.178 13.6184 11.5662 13.5069 11.9632 13.5003C12.3603 13.4937 12.752 13.5923 13.0986 13.7861C13.4452 13.9799 13.7343 14.262 13.9366 14.6037C14.1389 14.9454 14.2472 15.3345 14.2505 15.7316C14.2537 16.1287 14.1518 16.5196 13.9551 16.8645C13.7584 17.2095 13.4739 17.4962 13.1305 17.6957C12.7871 17.8951 12.3971 18.0001 12 18ZM6 15.75V15.7095C5.58985 15.3422 5.21428 14.938 4.878 14.502C4.63157 14.8716 4.50005 15.3058 4.5 15.75V16.5C4.5 19.4565 7.29 22.5 12 22.5C16.71 22.5 19.5 19.4565 19.5 16.5V15.75C19.5 15.1533 19.2629 14.581 18.841 14.159C18.419 13.7371 17.8467 13.5 17.25 13.5H15C15.3285 13.935 15.5625 14.445 15.675 15H17.25C17.4489 15 17.6397 15.079 17.7803 15.2197C17.921 15.3603 18 15.5511 18 15.75V16.5C18 18.657 15.852 21 12 21C8.148 21 6 18.657 6 16.5V15.75ZM12 12C11.1417 12 10.3094 12.2943 9.642 12.834C8.98619 12.4322 8.44472 11.8685 8.06961 11.1971C7.6945 10.5257 7.49834 9.7691 7.5 9C7.50022 8.21547 7.70554 7.44462 8.0956 6.76393C8.48566 6.08324 9.0469 5.51634 9.72365 5.11948C10.4004 4.72263 11.1692 4.50959 11.9536 4.50151C12.7381 4.49342 13.5111 4.69058 14.1959 5.07341C14.8807 5.45624 15.4535 6.01145 15.8575 6.68396C16.2615 7.35648 16.4826 8.12293 16.499 8.90729C16.5154 9.69165 16.3264 10.4667 15.9509 11.1555C15.5753 11.8443 15.0262 12.4229 14.358 12.834C13.6906 12.2943 12.8583 12 12 12ZM9 9C9 9.79565 9.31607 10.5587 9.87868 11.1213C10.4413 11.6839 11.2044 12 12 12C12.7956 12 13.5587 11.6839 14.1213 11.1213C14.6839 10.5587 15 9.79565 15 9C15 8.20435 14.6839 7.44129 14.1213 6.87868C13.5587 6.31607 12.7956 6 12 6C11.2044 6 10.4413 6.31607 9.87868 6.87868C9.31607 7.44129 9 8.20435 9 9Z" fill="currentColor"/>
</g>
</svg>
