<svg preserveAspectRatio="none" width="100%" height="100%" overflow="visible" style="display: block;" viewBox="0 0 21.4986 21.4997" fill="none" xmlns="http://www.w3.org/2000/svg">
<g id="Group">
<path id="Vector" d="M9.54487 1.6638C9.85292 1.35576 10.2221 1.11565 10.6285 0.958917C11.035 0.802187 11.4698 0.732314 11.9049 0.753796L17.5079 1.0308C18.2806 1.06951 19.0113 1.39393 19.5583 1.94109C20.1052 2.48824 20.4294 3.21909 20.4679 3.9918L20.7449 9.5958C20.7662 10.0307 20.6963 10.4653 20.5395 10.8716C20.3828 11.2779 20.1428 11.6469 19.8349 11.9548L12.2569 19.5328C11.4768 20.312 10.4194 20.7497 9.31687 20.7497C8.21434 20.7497 7.1569 20.312 6.37687 19.5328L1.96687 15.1228C1.18768 14.3428 0.75 13.2853 0.75 12.1828C0.75 11.0803 1.18768 10.0228 1.96687 9.2428L9.54487 1.6638Z" stroke="currentColor" stroke-width="1.5"/>
<path id="Vector_2" d="M16.2489 5.2508H16.2399" stroke="currentColor" stroke-width="2" stroke-linecap="round" stroke-linejoin="round"/>
<path id="Vector_3" d="M11.7309 10.9568L8.74887 12.7508M8.74887 12.7508L5.76887 14.5448M8.74887 12.7508L8.76787 16.2508M8.74887 12.7508L8.73087 9.2508M8.74887 12.7508L11.7489 14.4568M8.74887 12.7508L5.74887 11.0438" stroke="currentColor" stroke-width="1.5" stroke-linecap="round" stroke-linejoin="round"/>
</g>
</svg>
