<svg preserveAspectRatio="none" width="100%" height="100%" overflow="visible" style="display: block;" viewBox="0 0 18 19.8144" fill="none" xmlns="http://www.w3.org/2000/svg">
<g id="Group">
<g id="Vector">
</g>
<path id="Vector_2" fill-rule="evenodd" clip-rule="evenodd" d="M16 1.00268e-07C16.5046 -0.000159579 16.9906 0.190406 17.3605 0.533497C17.7305 0.876587 17.9572 1.34684 17.995 1.85L18 2V15C18.0002 15.5046 17.8096 15.9906 17.4665 16.3605C17.1234 16.7305 16.6532 16.9572 16.15 16.995L16 17H2C1.49542 17.0002 1.00943 16.8096 0.639452 16.4665C0.269471 16.1234 0.0428434 15.6532 0.00500021 15.15L1.00268e-07 15V2C-0.000159579 1.49542 0.190406 1.00943 0.533497 0.639452C0.876587 0.269471 1.34684 0.0428434 1.85 0.00500021L2 1.00268e-07H16ZM5 12H2V15H5V12ZM16 12H7V15H16V12ZM5 7H2V10H5V7ZM16 7H7V10H16V7ZM5 2H2V5H5V2ZM16 2H7V5H16V2Z" fill="currentColor"/>
</g>
</svg>
