<svg preserveAspectRatio="none" width="100%" height="100%" overflow="visible" style="display: block;" viewBox="0 0 20 20" fill="none" xmlns="http://www.w3.org/2000/svg">
<g id="Frame">
<path id="Vector" d="M7.7414 17.5003C7.05292 17.497 6.37197 17.3568 5.73819 17.0878C5.10441 16.8188 4.53045 16.4265 4.04973 15.9336C3.57262 15.4814 3.18936 14.9396 2.92188 14.3391C2.65441 13.7386 2.50796 13.0913 2.49094 12.4341C2.47391 11.777 2.58663 11.123 2.82265 10.5094C3.05866 9.8959 3.41335 9.33493 3.8664 8.85863L9.99973 2.66696C10.3273 2.34002 10.7177 2.08286 11.1473 1.91098C11.577 1.73911 12.0371 1.6561 12.4997 1.66696C12.9953 1.66865 13.4856 1.76899 13.942 1.96214C14.3984 2.15529 14.8118 2.43738 15.1581 2.79196C15.8472 3.45549 16.2469 4.36405 16.2703 5.32044C16.2937 6.27682 15.9389 7.20385 15.2831 7.90029L9.1164 14.092C8.91888 14.2908 8.68384 14.4485 8.42492 14.5557C8.16599 14.663 7.88834 14.7178 7.60807 14.717C7.30529 14.7174 7.00551 14.6571 6.72641 14.5397C6.44732 14.4224 6.19456 14.2503 5.98307 14.0336C5.56034 13.6243 5.31621 13.0648 5.30373 12.4765C5.29124 11.8882 5.51142 11.3188 5.9164 10.892L11.6081 5.17529C11.7701 5.06771 11.9646 5.02017 12.1579 5.04089C12.3513 5.06161 12.5313 5.1493 12.6668 5.28876C12.8023 5.42822 12.8847 5.61069 12.8999 5.80455C12.9151 5.99841 12.8619 6.19147 12.7497 6.35029L7.05807 12.067C6.96316 12.1813 6.91696 12.3284 6.92943 12.4764C6.9419 12.6245 7.01204 12.7618 7.12473 12.8586C7.24199 12.9767 7.40007 13.0453 7.5664 13.0503C7.62801 13.0512 7.68919 13.0398 7.7464 13.017C7.80361 12.9941 7.85573 12.9601 7.89973 12.917L14.0581 6.72529C14.4037 6.34128 14.5844 5.83665 14.561 5.3205C14.5376 4.80435 14.3121 4.31813 13.9331 3.96696C13.5811 3.60149 13.1024 3.38484 12.5955 3.36159C12.0886 3.33834 11.5921 3.51025 11.2081 3.84196L5.04973 10.0003C4.75027 10.3219 4.51737 10.6996 4.36442 11.1116C4.21148 11.5236 4.14151 11.9618 4.15855 12.4009C4.17559 12.8401 4.2793 13.2715 4.4637 13.6704C4.64811 14.0693 4.90958 14.4278 5.23307 14.7253C5.55746 15.0616 5.94562 15.3298 6.37487 15.5144C6.80411 15.699 7.26584 15.7962 7.73307 15.8003C8.13591 15.8036 8.53544 15.7272 8.90869 15.5756C9.28195 15.424 9.62157 15.2002 9.90807 14.917L16.0664 8.72529C16.2222 8.56837 16.434 8.47978 16.6551 8.479C16.8763 8.47821 17.0886 8.56531 17.2456 8.72113C17.4025 8.87694 17.4911 9.08871 17.4919 9.30985C17.4926 9.53098 17.4055 9.74337 17.2497 9.90029L11.0914 16.092C10.6542 16.5369 10.1328 16.8906 9.55775 17.1323C8.98265 17.3741 8.36524 17.4992 7.7414 17.5003Z" fill="var(--fill-0, #72717C)"/>
</g>
</svg>
