<svg preserveAspectRatio="none" width="100%" height="100%" overflow="visible" style="display: block;" viewBox="0 0 36 36" fill="none" xmlns="http://www.w3.org/2000/svg">
<g id="Frame 2147241115" filter="url(#filter0_di_0_7)">
<path d="M5 16.25C5 9.0703 10.8203 3.25 18 3.25V3.25C25.1797 3.25 31 9.0703 31 16.25V16.25C31 23.4297 25.1797 29.25 18 29.25V29.25C10.8203 29.25 5 23.4297 5 16.25V16.25Z" fill="var(--fill-0, white)" shape-rendering="crispEdges"/>
<path d="M5 16.25C5 9.0703 10.8203 3.25 18 3.25V3.25C25.1797 3.25 31 9.0703 31 16.25V16.25C31 23.4297 25.1797 29.25 18 29.25V29.25C10.8203 29.25 5 23.4297 5 16.25V16.25Z" fill="url(#paint0_radial_0_7)" shape-rendering="crispEdges"/>
<path d="M18 2.25C25.732 2.25 32 8.51801 32 16.25C32 23.982 25.732 30.25 18 30.25C10.268 30.25 4 23.982 4 16.25C4 8.51801 10.268 2.25 18 2.25Z" stroke="url(#paint1_linear_0_7)" stroke-width="2" shape-rendering="crispEdges"/>
<circle id="Ellipse 5" cx="18" cy="16.25" r="13" fill="var(--fill-0, white)"/>
<g id="Frame">
<path id="Vector" d="M25.592 9.34602C20.728 12.33 17.2 16.098 15.608 17.986L11.72 14.938L10 16.322L16.712 23.154C17.864 20.194 21.528 14.41 26 10.298L25.592 9.34602Z" fill="var(--fill-0, #EA580C)"/>
</g>
</g>
<defs>
<filter id="filter0_di_0_7" x="0" y="0" width="36" height="36" filterUnits="userSpaceOnUse" color-interpolation-filters="sRGB">
<feFlood flood-opacity="0" result="BackgroundImageFix"/>
<feColorMatrix in="SourceAlpha" type="matrix" values="0 0 0 0 0 0 0 0 0 0 0 0 0 0 0 0 0 0 127 0" result="hardAlpha"/>
<feOffset dy="1.75"/>
<feGaussianBlur stdDeviation="1.5"/>
<feComposite in2="hardAlpha" operator="out"/>
<feColorMatrix type="matrix" values="0 0 0 0 0 0 0 0 0 0 0 0 0 0 0 0 0 0 0.5 0"/>
<feBlend mode="overlay" in2="BackgroundImageFix" result="effect1_dropShadow_0_7"/>
<feBlend mode="normal" in="SourceGraphic" in2="effect1_dropShadow_0_7" result="shape"/>
<feColorMatrix in="SourceAlpha" type="matrix" values="0 0 0 0 0 0 0 0 0 0 0 0 0 0 0 0 0 0 127 0" result="hardAlpha"/>
<feOffset dy="4.5"/>
<feComposite in2="hardAlpha" operator="arithmetic" k2="-1" k3="1"/>
<feColorMatrix type="matrix" values="0 0 0 0 0 0 0 0 0 0 0 0 0 0 0 0 0 0 0.4 0"/>
<feBlend mode="overlay" in2="shape" result="effect2_innerShadow_0_7"/>
</filter>
<radialGradient id="paint0_radial_0_7" cx="0" cy="0" r="1" gradientUnits="userSpaceOnUse" gradientTransform="translate(18.1368 29.25) rotate(-90) scale(27.0947 68.9074)">
<stop stop-color="#FFE660"/>
<stop offset="0.196964" stop-color="#FFAE50"/>
<stop offset="0.687428" stop-color="#FF7759"/>
</radialGradient>
<linearGradient id="paint1_linear_0_7" x1="18" y1="3.25" x2="18" y2="29.25" gradientUnits="userSpaceOnUse">
<stop stop-color="#FCDBCA"/>
<stop offset="1" stop-color="#EA580C"/>
</linearGradient>
</defs>
</svg>
